<?xml version="1.0" encoding="UTF-8"?>
<svg xmlns="http://www.w3.org/2000/svg" xmlns:xlink="http://www.w3.org/1999/xlink" width="760px" height="512px" viewBox="0 0 759 512" version="1.1">
<g id="surface1">
<path style=" stroke:none;fill-rule:nonzero;fill:rgb(0%,0%,0%);fill-opacity:1;" d="M 496.765625 335.910156 L 340.703125 64.453125 L 452.816406 0 L 646.882812 335.910156 L 496.765625 335.910156 "/>
<path style=" stroke:none;fill-rule:nonzero;fill:rgb(0%,0%,0%);fill-opacity:1;" d="M 81.078125 297.875 L 193.195312 232.988281 L 252.515625 335.910156 L 102.835938 335.910156 L 81.078125 297.875 "/>
<path style=" stroke:none;fill-rule:nonzero;fill:rgb(0%,0%,0%);fill-opacity:1;" d="M 301.105469 509.089844 L 333.015625 509.089844 L 333.015625 379.894531 L 301.105469 379.894531 Z M 301.105469 509.089844 "/>
<path style=" stroke:none;fill-rule:nonzero;fill:rgb(0%,0%,0%);fill-opacity:1;" d="M 700.984375 512.140625 C 665.304688 512.140625 643.835938 493.703125 642.675781 467.71875 L 676.328125 467.71875 C 676.328125 475.847656 681.402344 487.75 703.160156 488.1875 C 717.664062 488.1875 724.480469 479.621094 724.480469 473.234375 C 723.609375 463.074219 710.847656 462.203125 697.210938 460.023438 C 683.578125 457.847656 671.976562 455.378906 663.5625 451.023438 C 652.828125 445.507812 645.578125 433.605469 645.578125 419.960938 C 645.578125 396.878906 665.59375 378.589844 698.953125 378.589844 C 731.296875 378.589844 751.746094 395.574219 753.921875 420.832031 L 721.433594 420.832031 C 721.144531 414.007812 719.839844 403.265625 700.695312 403.265625 C 687.785156 403.265625 679.226562 405.878906 678.503906 414.878906 C 678.503906 428.089844 705.335938 427.21875 726.21875 432.734375 C 746.238281 437.816406 759 450.300781 759 467.71875 C 759 499.800781 733.039062 512.140625 700.984375 512.140625 "/>
<path style=" stroke:none;fill-rule:nonzero;fill:rgb(0%,0%,0%);fill-opacity:1;" d="M 212.484375 182.617188 L 324.601562 117.875 L 450.351562 335.910156 L 333.015625 335.910156 L 333.015625 367.847656 L 301.105469 367.847656 L 301.105469 335.765625 L 212.484375 182.617188 "/>
<path style=" stroke:none;fill-rule:evenodd;fill:rgb(0%,0%,0%);fill-opacity:1;" d="M 215.386719 512.140625 C 178.253906 512.140625 148.085938 481.800781 148.085938 445.074219 C 148.085938 407.910156 178.253906 378.589844 215.386719 378.589844 C 229.453125 378.589844 242.21875 382.363281 253.386719 390.054688 L 253.386719 335.910156 L 285.296875 335.910156 L 285.296875 509.089844 L 253.386719 509.089844 L 253.386719 500.527344 C 242.21875 507.785156 229.453125 512.140625 215.386719 512.140625 Z M 178.691406 445.074219 C 178.691406 465.105469 195.804688 481.800781 216.257812 481.800781 C 236.273438 481.800781 253.386719 465.105469 253.386719 445.074219 C 253.386719 425.039062 236.273438 407.910156 216.257812 407.910156 C 195.804688 407.910156 178.691406 425.039062 178.691406 445.074219 "/>
<path style=" stroke:none;fill-rule:evenodd;fill:rgb(0%,0%,0%);fill-opacity:1;" d="M 451.222656 335.910156 L 482.695312 335.910156 L 482.695312 509.089844 L 451.222656 509.089844 L 451.222656 500.527344 C 440.488281 507.785156 427.292969 512.140625 412.785156 512.140625 C 376.089844 512.140625 345.921875 481.800781 345.921875 445.074219 C 345.921875 407.910156 376.089844 378.589844 412.785156 378.589844 C 427.292969 378.589844 440.054688 382.363281 451.222656 390.054688 Z M 376.960938 445.074219 C 376.960938 465.105469 394.078125 481.800781 413.65625 481.800781 C 434.109375 481.800781 451.222656 465.105469 451.222656 445.074219 C 451.222656 425.039062 434.109375 407.910156 413.65625 407.910156 C 394.078125 407.910156 376.960938 425.039062 376.960938 445.074219 "/>
<path style=" stroke:none;fill-rule:evenodd;fill:rgb(0%,0%,0%);fill-opacity:1;" d="M 560.292969 512.140625 C 523.742188 512.140625 493.429688 481.800781 493.429688 445.074219 C 493.429688 407.910156 523.742188 378.589844 560.292969 378.589844 C 574.363281 378.589844 587.5625 382.363281 598.292969 390.054688 L 598.292969 379.75 L 630.203125 379.75 L 630.203125 509.089844 L 598.292969 509.089844 L 598.292969 500.527344 C 587.5625 507.785156 574.796875 512.140625 560.292969 512.140625 Z M 524.46875 445.074219 C 524.46875 465.105469 541.582031 481.800781 561.597656 481.800781 C 581.613281 481.800781 598.292969 465.105469 598.292969 445.074219 C 598.292969 425.039062 581.613281 407.910156 561.597656 407.910156 C 541.582031 407.910156 524.46875 425.039062 524.46875 445.074219 "/>
<path style=" stroke:none;fill-rule:evenodd;fill:rgb(0%,0%,0%);fill-opacity:1;" d="M 30.75 445.074219 C 30.75 465.105469 47.863281 481.800781 67.878906 481.800781 C 88.328125 481.800781 105.445312 465.105469 105.445312 445.074219 C 105.445312 425.039062 88.328125 407.910156 67.878906 407.910156 C 47.863281 407.910156 30.75 425.039062 30.75 445.074219 Z M 67.007812 512.140625 C 30.3125 512.140625 0 481.800781 0 445.074219 C 0 407.910156 30.3125 378.589844 67.007812 378.589844 C 81.078125 378.589844 94.277344 382.363281 105.445312 390.054688 L 105.445312 379.75 L 136.917969 379.75 L 136.917969 509.089844 L 105.445312 509.089844 L 105.445312 500.527344 C 94.710938 507.785156 81.511719 512.140625 67.007812 512.140625 "/>
</g>
</svg>
