<svg width="51" height="22" viewBox="0 0 51 22" fill="none" xmlns="http://www.w3.org/2000/svg">
<path fill-rule="evenodd" clip-rule="evenodd" d="M9.61596 3.39626C9.02265 4.10696 8.07334 4.66751 7.12404 4.58743C7.00538 3.62649 7.47014 2.60548 8.01401 1.97486C8.60733 1.24414 9.64563 0.723633 10.4862 0.683594C10.585 1.68458 10.1994 2.66554 9.61596 3.39626ZM10.4764 4.77753C9.64011 4.72881 8.877 5.03213 8.26062 5.27713C7.86397 5.43479 7.52807 5.56831 7.27253 5.56831C6.98575 5.56831 6.63599 5.42766 6.24329 5.26974C5.72872 5.06281 5.14043 4.82623 4.5235 4.83759C3.10944 4.85761 1.79425 5.66841 1.07239 6.95967C-0.410898 9.54221 0.686734 13.366 2.12058 15.468C2.82267 16.5091 3.6632 17.6502 4.77072 17.6101C5.25796 17.5915 5.60845 17.441 5.97118 17.2852C6.38878 17.1058 6.82259 16.9195 7.49996 16.9195C8.15385 16.9195 8.56869 17.1009 8.96692 17.2752C9.34556 17.4408 9.70918 17.5999 10.249 17.5901C11.3961 17.5701 12.1179 16.5491 12.82 15.5081C13.5777 14.3908 13.9106 13.3003 13.9612 13.1349L13.9671 13.1157C13.9659 13.1145 13.9566 13.1102 13.9401 13.1026L13.94 13.1025L13.94 13.1025L13.94 13.1025L13.94 13.1025C13.6867 12.9851 11.7508 12.088 11.7323 9.68235C11.7136 7.66314 13.2678 6.64009 13.5124 6.47904C13.5273 6.46924 13.5373 6.46263 13.5419 6.45918C12.553 4.97773 11.0104 4.81757 10.4764 4.77753ZM18.4168 17.4802V1.87487H24.2016C27.1879 1.87487 29.2744 3.95691 29.2744 6.9999C29.2744 10.0429 27.1484 12.145 24.1225 12.145H20.8098V17.4802H18.4168ZM20.8099 3.91673H23.5688C25.6454 3.91673 26.832 5.03784 26.832 7.00977C26.832 8.98171 25.6454 10.1128 23.5589 10.1128H20.8099V3.91673ZM37.1759 15.6083C36.543 16.8295 35.1487 17.6003 33.6457 17.6003C31.4207 17.6003 29.8682 16.259 29.8682 14.237C29.8682 12.235 31.3713 11.0839 34.15 10.9137L37.1363 10.7335V9.87269C37.1363 8.60144 36.3156 7.91076 34.8521 7.91076C33.6457 7.91076 32.7656 8.54138 32.5876 9.50233H30.4319C30.5011 7.48034 32.3799 6.0089 34.9213 6.0089C37.6604 6.0089 39.4404 7.46032 39.4404 9.71253V17.4802H37.2253V15.6083H37.1759ZM34.2884 15.7485C33.0127 15.7485 32.2019 15.1278 32.2019 14.1769C32.2019 13.196 32.9831 12.6254 34.4762 12.5353L37.1363 12.3651V13.246C37.1363 14.7074 35.9101 15.7485 34.2884 15.7485ZM46.787 18.0907C45.8278 20.8234 44.7302 21.7242 42.3965 21.7242C42.2185 21.7242 41.6252 21.7042 41.4867 21.6642V19.7923C41.6351 19.8124 42.001 19.8324 42.1888 19.8324C43.2469 19.8324 43.8402 19.3819 44.2061 18.2108L44.4237 17.5201L40.3693 6.15895H42.8712L45.6894 15.378H45.7388L48.5571 6.15895H50.9897L46.787 18.0907Z" fill="#152354"/>
</svg>
