<svg width="23" height="26" viewBox="0 0 23 26" fill="none" xmlns="http://www.w3.org/2000/svg">
<path d="M22 12.2512L12.0717 22.9525C10.8554 24.2635 9.20574 25 7.48564 25C5.76554 25 4.11589 24.2635 2.8996 22.9525C1.68331 21.6415 1 19.8634 1 18.0094C1 16.1554 1.68331 14.3773 2.8996 13.0663L12.8279 2.365C13.6388 1.491 14.7385 1 15.8853 1C17.032 1 18.1318 1.491 18.9426 2.365C19.7535 3.23899 20.209 4.42438 20.209 5.6604C20.209 6.89641 19.7535 8.0818 18.9426 8.95579L9.00352 19.6571C8.80277 19.8735 8.56445 20.0451 8.30215 20.1622C8.03986 20.2793 7.75874 20.3396 7.47484 20.3396C7.19094 20.3396 6.90981 20.2793 6.64752 20.1622C6.38523 20.0451 6.14691 19.8735 5.94616 19.6571C5.74541 19.4407 5.58617 19.1838 5.47752 18.9011C5.36888 18.6184 5.31296 18.3154 5.31296 18.0094C5.31296 17.7034 5.36888 17.4004 5.47752 17.1177C5.58617 16.835 5.74541 16.5781 5.94616 16.3617L15.1182 6.48716" stroke="#757575" stroke-width="1.5" stroke-linecap="round" stroke-linejoin="round"/>
</svg>
