<?xml version="1.0" encoding="UTF-8"?>
<svg id="Layer_1" data-name="Layer 1" xmlns="http://www.w3.org/2000/svg" viewBox="0 0 145 140">
  <defs>
    <style>
      .cls-1 {
        stroke-width: 4px;
      }

      .cls-1, .cls-2 {
        fill: none;
      }

      .cls-1, .cls-2, .cls-3 {
        stroke: #000;
        stroke-miterlimit: 10;
      }

      .cls-4 {
        stroke-width: 0px;
      }

      .cls-2 {
        stroke-width: 3px;
      }

      .cls-3 {
        fill: #fff;
        stroke-width: 2px;
      }
    </style>
  </defs>
  <ellipse class="cls-3" cx="72.5" cy="70" rx="71.5" ry="69"/>
  <line class="cls-1" x1="33" y1="70" x2="125" y2="70"/>
  <line class="cls-2" x1="30" y1="70" x2="60" y2="49"/>
  <line class="cls-2" x1="59" y1="92" x2="30" y2="70"/>
  <path class="cls-4" d="M31,68.69c-.05-.02-.11-.04-.17-.05-.19-.04-.37-.06-.56-.08-.12-.01-.25-.02-.37-.03-.21,0-.4.04-.58.13-.19.06-.35.16-.48.31-.15.14-.25.3-.31.48-.09.18-.14.37-.13.58l.05.4c.07.25.2.47.39.66l.3.23c.23.14.49.2.76.2.15.01.31.02.46.04l-.4-.05c.08.01.17.03.24.06.2.06.4.07.6.03.2,0,.39-.07.56-.18.17-.09.32-.22.42-.39.13-.14.22-.31.27-.51l.05-.4c0-.27-.07-.52-.2-.76l-.23-.3c-.19-.19-.41-.31-.66-.39h0Z"/>
  <path class="cls-4" d="M32.6,71.59c1.93,0,1.93-3,0-3s-1.93,3,0,3h0Z"/>
  <path class="cls-4" d="M59.79,50.59c1.93,0,1.93-3,0-3s-1.93,3,0,3h0Z"/>
  <path class="cls-4" d="M59.09,93.53c1.93,0,1.93-3,0-3s-1.93,3,0,3h0Z"/>
  <path class="cls-4" d="M124.99,72c2.57,0,2.58-4,0-4s-2.58,4,0,4h0Z"/>
</svg>