<svg width="24" height="24" viewBox="0 0 24 24" fill="none" xmlns="http://www.w3.org/2000/svg">
<path d="M4.26126 2.93062C5.28606 2.35702 6.59286 2.22262 7.84206 2.53942C8.45046 2.69302 8.97006 3.08782 9.28206 3.63142L10.3597 5.51062C10.7437 6.18057 10.8547 6.97283 10.6694 7.72251C10.4841 8.47219 10.0168 9.12154 9.36486 9.53542L8.41686 10.1378C8.02446 10.3862 7.88046 10.7666 7.97046 11.0678C8.29206 12.1454 9.00366 13.3406 9.78606 14.159C10.0189 14.4038 10.4461 14.4614 10.8637 14.2178L11.3881 13.9118C11.7322 13.7113 12.1127 13.5812 12.5076 13.5293C12.9025 13.4774 13.3038 13.5046 13.688 13.6093C14.0722 13.7141 14.4318 13.8944 14.7456 14.1395C15.0595 14.3847 15.3214 14.69 15.5161 15.0374L16.4821 16.7594C16.7977 17.3234 16.8493 17.9966 16.6261 18.6026C16.1809 19.8062 15.3229 20.777 14.2681 21.263C13.1965 21.7562 11.9425 21.7358 10.8073 20.9786C9.00966 19.781 6.84366 17.765 4.88166 14.4026C2.89446 10.9946 2.39406 8.09422 2.45046 5.93182C2.48646 4.54822 3.21846 3.51382 4.26126 2.93062ZM15.2917 2.47462C15.1526 2.39728 14.9885 2.37836 14.8354 2.42202C14.6824 2.46568 14.553 2.56834 14.4757 2.70742C14.3983 2.8465 14.3794 3.0106 14.4231 3.16363C14.4667 3.31666 14.5694 3.44608 14.7085 3.52342L15.1693 3.78022C16.6088 4.57991 17.8333 5.71624 18.7382 7.09211C19.643 8.46797 20.2013 10.0425 20.3653 11.681L20.4037 12.059C20.4082 12.1399 20.4291 12.2191 20.465 12.2917C20.501 12.3643 20.5513 12.4289 20.6129 12.4815C20.6744 12.5342 20.7461 12.5738 20.8234 12.5981C20.9007 12.6223 20.9822 12.6306 21.0628 12.6225C21.1434 12.6144 21.2216 12.59 21.2925 12.5509C21.3635 12.5117 21.4258 12.4586 21.4756 12.3948C21.5255 12.3309 21.5619 12.2576 21.5827 12.1793C21.6034 12.1009 21.6081 12.0192 21.5965 11.939L21.5593 11.5622C21.3762 9.73053 20.7522 7.97042 19.7408 6.43236C18.7294 4.89431 17.3605 3.62406 15.7513 2.73022L15.2917 2.47462ZM13.8853 5.69062C13.9672 5.55426 14.1 5.45605 14.2544 5.41757C14.4087 5.37909 14.5721 5.40349 14.7085 5.48542L14.8573 5.57422C15.8259 6.15496 16.6569 6.93913 17.2927 7.87251C17.9286 8.80589 18.3542 9.86623 18.5401 10.9802L18.5929 11.3006C18.6084 11.3794 18.608 11.4605 18.5916 11.5392C18.5753 11.6178 18.5433 11.6923 18.4976 11.7584C18.4518 11.8244 18.3933 11.8806 18.3255 11.9236C18.2577 11.9666 18.1819 11.9955 18.1027 12.0087C18.0234 12.0219 17.9424 12.019 17.8643 12.0003C17.7862 11.9816 17.7126 11.9473 17.648 11.8997C17.5834 11.852 17.529 11.7918 17.488 11.7227C17.4471 11.6536 17.4204 11.577 17.4097 11.4974L17.3557 11.1782C17.1988 10.2356 16.8391 9.33824 16.3015 8.54823C15.7638 7.75822 15.061 7.09439 14.2417 6.60262L14.0929 6.51382C14.0252 6.47333 13.9663 6.41992 13.9193 6.35663C13.8723 6.29334 13.8383 6.22142 13.8191 6.14498C13.8 6.06853 13.796 5.98906 13.8076 5.9111C13.8191 5.83314 13.8447 5.75822 13.8853 5.69062Z" fill="white"/>
</svg>
