<svg width="26" height="26" viewBox="0 0 26 26" fill="none" xmlns="http://www.w3.org/2000/svg">
<path d="M10.8337 13L9.75034 17.3333M15.167 13L16.2503 17.3333M8.667 7.6004C9.11854 7.58333 9.65684 7.58333 10.3214 7.58333H15.6793C16.3438 7.58333 16.8821 7.58333 17.3337 7.6004M8.667 7.6004C7.93023 7.62825 7.42447 7.70155 6.97812 7.89443C6.3432 8.16882 5.79542 8.61164 5.3941 9.17498C4.93907 9.81371 4.75584 10.6688 4.38939 12.3789L3.96402 14.3639C3.34901 17.234 3.04151 18.669 3.41869 19.7941C3.74945 20.7807 4.42418 21.6153 5.31959 22.1455C6.34066 22.75 7.80826 22.75 10.7434 22.75H15.2572C18.1924 22.75 19.66 22.75 20.6811 22.1455C21.5765 21.6153 22.2512 20.7807 22.582 19.7941C22.9592 18.669 22.6517 17.234 22.0367 14.3639L21.6113 12.3789C21.2448 10.6688 21.0616 9.81371 20.6066 9.17498C20.2053 8.61164 19.6575 8.16882 19.0226 7.89443C18.5762 7.70155 18.0704 7.62825 17.3337 7.6004M8.667 7.6004C8.667 5.23235 10.6252 3.25 13.0003 3.25C15.3755 3.25 17.3337 5.23235 17.3337 7.6004" stroke="white" stroke-width="2" stroke-linecap="round" stroke-linejoin="round"/>
</svg>
