<?xml version="1.0" encoding="UTF-8"?>
<svg xmlns="http://www.w3.org/2000/svg" xmlns:xlink="http://www.w3.org/1999/xlink" width="67.5pt" height="67.5pt" viewBox="0 0 67.5 67.5" version="1.1">
<g id="surface1901">
<path style=" stroke:none;fill-rule:nonzero;fill:rgb(0%,0%,0%);fill-opacity:1;" d="M 33.5 6.699219 C 18.699219 6.699219 6.699219 18.699219 6.699219 33.5 C 6.699219 48.300781 18.699219 60.300781 33.5 60.300781 C 48.300781 60.300781 60.300781 48.300781 60.300781 33.5 C 60.300781 18.699219 48.300781 6.699219 33.5 6.699219 Z M 48.480469 28.378906 L 31.59375 45.261719 C 31.175781 45.683594 30.609375 45.917969 30.015625 45.917969 C 29.425781 45.917969 28.855469 45.683594 28.4375 45.261719 L 20.726562 37.550781 C 19.851562 36.679688 19.851562 35.265625 20.726562 34.394531 C 21.597656 33.519531 23.011719 33.519531 23.882812 34.394531 L 30.015625 40.527344 L 45.320312 25.222656 C 46.195312 24.347656 47.605469 24.347656 48.480469 25.222656 C 49.351562 26.09375 49.351562 27.503906 48.480469 28.378906 Z M 48.480469 28.378906 "/>
</g>
</svg>
