<svg width="26" height="26" viewBox="0 0 26 26" fill="none" xmlns="http://www.w3.org/2000/svg">
<path fill-rule="evenodd" clip-rule="evenodd" d="M13.0003 2.1665C7.01724 2.1665 2.16699 7.01675 2.16699 12.9998C2.16699 18.9829 7.01724 23.8332 13.0003 23.8332C18.9834 23.8332 23.8337 18.9829 23.8337 12.9998C23.8337 7.01675 18.9834 2.1665 13.0003 2.1665ZM13.0003 3.73489C18.1172 3.73489 22.2653 7.88295 22.2653 12.9998C22.2653 18.1167 18.1172 22.2648 13.0003 22.2648C7.88344 22.2648 3.73538 18.1167 3.73538 12.9998C3.73538 7.88295 7.88344 3.73489 13.0003 3.73489ZM16.2594 8.75816L10.9381 10.4235C10.6928 10.5002 10.5007 10.6923 10.4239 10.9376L8.75865 16.2589C8.56961 16.863 9.1372 17.4306 9.74127 17.2415L15.0626 15.5762C15.3078 15.4994 15.4999 15.3073 15.5767 15.0621L17.242 9.74078C17.431 9.13671 16.8635 8.56912 16.2594 8.75816ZM15.2974 10.7016L14.2017 14.2013L10.7021 15.2969L11.7979 11.7974L15.2974 10.7016Z" fill="white"/>
</svg>
