<svg width="30" height="30" viewBox="0 0 30 30" fill="none" xmlns="http://www.w3.org/2000/svg">
<path fill-rule="evenodd" clip-rule="evenodd" d="M17.875 5H20.375C22.1223 5 23.5906 6.1951 24.0069 7.8125H26.625C27.1428 7.8125 27.5625 8.23223 27.5625 8.75C27.5625 9.26777 27.1428 9.6875 26.625 9.6875H24.0069C23.5906 11.3049 22.1223 12.5 20.375 12.5H17.875C15.8039 12.5 14.125 10.8211 14.125 8.75C14.125 6.67893 15.8039 5 17.875 5ZM3.9375 7.8125C3.41973 7.8125 3 8.23223 3 8.75C3 9.26777 3.41973 9.6875 3.9375 9.6875H10.1875C10.7053 9.6875 11.125 9.26777 11.125 8.75C11.125 8.23223 10.7053 7.8125 10.1875 7.8125H3.9375ZM20.375 19.3125C19.8572 19.3125 19.4375 19.7322 19.4375 20.25C19.4375 20.7678 19.8572 21.1875 20.375 21.1875H26.625C27.1428 21.1875 27.5625 20.7678 27.5625 20.25C27.5625 19.7322 27.1428 19.3125 26.625 19.3125H20.375ZM12.6875 16.5H10.1875C8.44015 16.5 6.97193 17.6951 6.55564 19.3125H3.9375C3.41973 19.3125 3 19.7322 3 20.25C3 20.7678 3.41973 21.1875 3.9375 21.1875H6.55564C6.97193 22.8049 8.44015 24 10.1875 24H12.6875C14.7586 24 16.4375 22.3211 16.4375 20.25C16.4375 18.1789 14.7586 16.5 12.6875 16.5Z" fill="white"/>
</svg>
