<svg width="136" height="37" viewBox="0 0 136 37" fill="none" xmlns="http://www.w3.org/2000/svg">
<path d="M22.5049 2.625L18.4766 16.375C21.2158 16.3392 22.9972 16.2318 23.8208 16.0527C25.1636 15.7842 26.381 15.2202 27.4731 14.3608C28.5653 13.4836 29.4784 12.2751 30.2124 10.7354H31.2598L27.0972 25.103H26.0229C26.202 24.172 26.2915 23.429 26.2915 22.874C26.2915 21.764 26.0588 20.8778 25.5933 20.2153C25.1457 19.5529 24.5638 19.1053 23.8477 18.8726C23.1315 18.6219 21.1621 18.4608 17.9395 18.3892L14.6631 29.749L14.0186 32.0317C13.929 32.4793 13.8843 32.918 13.8843 33.3477C13.8843 33.9743 14.0007 34.4666 14.2334 34.8247C14.484 35.1828 14.8779 35.4692 15.415 35.6841C15.9521 35.881 16.9727 35.9884 18.4766 36.0063L18.1812 37H0L0.29541 36.0063C2.04997 36.0063 3.33008 35.6841 4.13574 35.0396C4.94141 34.3771 5.6665 32.9448 6.31104 30.7427L12.8101 8.45264C13.4904 6.10726 13.8485 4.60335 13.8843 3.94092C13.8485 3.31429 13.562 2.78613 13.0249 2.35645C12.4878 1.90885 11.3867 1.64925 9.72168 1.57764L9.99023 0.583984H39.7461L37.3022 10.1982H36.3086C36.2012 8.19303 35.8879 6.70703 35.3687 5.74023C34.8494 4.75553 33.9901 3.99463 32.7905 3.45752C31.6089 2.90251 29.7111 2.625 27.0972 2.625H22.5049Z" fill="white"/>
<path d="M66.7466 37H37.6621L37.9575 36.0063C39.6942 36.0063 40.9564 35.6751 41.7441 35.0127C42.5498 34.3324 43.2928 32.8195 43.9731 30.4741L50.7407 7.08301C51.1167 5.79395 51.3047 4.78239 51.3047 4.04834C51.3047 3.33219 51.0361 2.75928 50.499 2.32959C49.9619 1.8999 48.9056 1.64925 47.3301 1.57764L47.6255 0.583984H65.1084L64.813 1.57764C63.13 1.61344 61.8678 1.98942 61.0264 2.70557C60.2028 3.42171 59.4688 4.88086 58.8242 7.08301L52.6475 28.4868C51.8597 31.2082 51.4658 32.8643 51.4658 33.4551C51.4658 33.8132 51.6628 34.1533 52.0566 34.4756C52.4684 34.7799 53.1219 34.9321 54.0171 34.9321C56.9891 34.9321 59.8537 34.2518 62.6108 32.8911C65.3859 31.5304 67.7313 29.4984 69.647 26.7949H70.7749L66.7466 37Z" fill="white"/>
<path d="M83.4077 1.57764L83.7031 0.583984H101.481L101.132 1.57764C99.521 1.57764 98.2856 1.93571 97.4263 2.65186C96.5848 3.368 95.8418 4.86296 95.1973 7.13672L88.5371 30.4473C88.0537 32.0944 87.812 33.1955 87.812 33.7505C87.812 34.395 88.0627 34.8963 88.564 35.2544C89.2085 35.7199 90.4259 35.9705 92.2163 36.0063L91.9478 37H73.874L74.1694 36.0063C75.9777 36.0063 77.3026 35.6662 78.144 34.9858C78.9855 34.2876 79.7464 32.7747 80.4268 30.4473L87.1406 7.13672C87.5524 5.70443 87.7583 4.62126 87.7583 3.88721C87.7583 3.22477 87.5077 2.70557 87.0063 2.32959C86.505 1.95361 85.3055 1.70296 83.4077 1.57764Z" fill="white"/>
<path d="M115.591 20.269L112.637 30.4204C112.225 31.8527 112.02 32.8643 112.02 33.4551C112.02 34.2786 112.288 34.9053 112.825 35.335C113.362 35.7467 114.58 35.9705 116.478 36.0063L116.128 37H98.3501L98.6455 36.0063C100.149 35.9884 101.215 35.8452 101.841 35.5767C102.468 35.2902 102.987 34.8337 103.399 34.207C103.703 33.7952 104.16 32.533 104.769 30.4204L111.509 7.29785C111.975 5.75814 112.208 4.65706 112.208 3.99463C112.208 3.33219 111.912 2.77718 111.321 2.32959C110.73 1.8641 109.656 1.61344 108.099 1.57764L108.394 0.583984H122.815C126.772 0.583984 129.619 1.08529 131.355 2.08789C134.041 3.66341 135.384 6.02669 135.384 9.17773C135.384 12.2214 134.041 14.9069 131.355 17.2344C128.688 19.5439 125.089 20.6987 120.56 20.6987C119.199 20.6987 117.543 20.5555 115.591 20.269ZM116.128 18.2012C117.292 18.3444 118.259 18.416 119.029 18.416C121.5 18.416 123.442 17.2881 124.856 15.0322C126.271 12.7764 126.978 10.422 126.978 7.96924C126.978 6.3042 126.521 5.01514 125.608 4.10205C124.695 3.17106 123.433 2.70557 121.822 2.70557C121.482 2.70557 121.061 2.72347 120.56 2.75928L116.128 18.2012Z" fill="white"/>
</svg>
