<svg width="22" height="22" viewBox="0 0 22 22" fill="none" xmlns="http://www.w3.org/2000/svg">
<path fill-rule="evenodd" clip-rule="evenodd" d="M13.2505 2C13.0516 2 12.8608 1.92098 12.7201 1.78033C12.5795 1.63968 12.5005 1.44891 12.5005 1.25C12.5005 1.05109 12.5795 0.860322 12.7201 0.71967C12.8608 0.579018 13.0516 0.5 13.2505 0.5H20.7505C20.9494 0.5 21.1402 0.579018 21.2808 0.71967C21.4215 0.860322 21.5005 1.05109 21.5005 1.25V8.75C21.5005 8.94891 21.4215 9.13968 21.2808 9.28033C21.1402 9.42098 20.9494 9.5 20.7505 9.5C20.5516 9.5 20.3608 9.42098 20.2201 9.28033C20.0795 9.13968 20.0005 8.94891 20.0005 8.75V3.0605L13.807 9.254C15.0247 10.7438 15.6232 12.6446 15.4789 14.5633C15.3345 16.482 14.4582 18.2718 13.0312 19.5626C11.6042 20.8533 9.73577 21.5463 7.81224 21.4981C5.88871 21.45 4.05727 20.6643 2.6967 19.3038C1.33614 17.9432 0.550525 16.1118 0.502353 14.1882C0.454182 12.2647 1.14713 10.3962 2.43789 8.96928C3.72865 7.54232 5.51847 6.66602 7.43718 6.52162C9.35588 6.37723 11.2567 6.97579 12.7465 8.1935L18.94 2H13.2505ZM8.00048 8C6.40918 8 4.88306 8.63214 3.75784 9.75736C2.63262 10.8826 2.00048 12.4087 2.00048 14C2.00048 15.5913 2.63262 17.1174 3.75784 18.2426C4.88306 19.3679 6.40918 20 8.00048 20C9.59178 20 11.1179 19.3679 12.2431 18.2426C13.3683 17.1174 14.0005 15.5913 14.0005 14C14.0005 12.4087 13.3683 10.8826 12.2431 9.75736C11.1179 8.63214 9.59178 8 8.00048 8Z" fill="#152354"/>
</svg>
