<svg width="24" height="24" viewBox="0 0 24 24" fill="none" xmlns="http://www.w3.org/2000/svg">
<path d="M20 8.49991C20 7.04853 19.5788 5.62833 18.7877 4.41156C17.9965 3.19479 16.8692 2.23372 15.5427 1.64492C14.2161 1.05611 12.7472 0.864861 11.314 1.09436C9.88092 1.32387 8.54518 1.96427 7.46881 2.93789C6.39245 3.91151 5.6217 5.17653 5.25005 6.57952C4.87841 7.98251 4.92182 9.46319 5.37504 10.842C5.82825 12.2208 6.6718 13.4385 7.80336 14.3474C8.93493 15.2562 10.3059 15.8173 11.75 15.9624V18.2499H8.75C8.55109 18.2499 8.36032 18.3289 8.21967 18.4696C8.07902 18.6102 8 18.801 8 18.9999C8 19.1988 8.07902 19.3896 8.21967 19.5302C8.36032 19.6709 8.55109 19.7499 8.75 19.7499H11.75V21.9999C11.75 22.1988 11.829 22.3896 11.9697 22.5302C12.1103 22.6709 12.3011 22.7499 12.5 22.7499C12.6989 22.7499 12.8897 22.6709 13.0303 22.5302C13.171 22.3896 13.25 22.1988 13.25 21.9999V19.7499H16.25C16.4489 19.7499 16.6397 19.6709 16.7803 19.5302C16.921 19.3896 17 19.1988 17 18.9999C17 18.801 16.921 18.6102 16.7803 18.4696C16.6397 18.3289 16.4489 18.2499 16.25 18.2499H13.25V15.9624C15.0992 15.7745 16.8129 14.9074 18.0598 13.5289C19.3066 12.1505 19.9979 10.3586 20 8.49991ZM12.5 14.4999C11.3133 14.4999 10.1533 14.148 9.16658 13.4887C8.17988 12.8294 7.41085 11.8924 6.95672 10.796C6.5026 9.69965 6.38378 8.49325 6.61529 7.32937C6.8468 6.16548 7.41824 5.09638 8.25736 4.25727C9.09647 3.41815 10.1656 2.84671 11.3295 2.6152C12.4933 2.38369 13.6997 2.50251 14.7961 2.95663C15.8925 3.41076 16.8295 4.17979 17.4888 5.16649C18.1481 6.15318 18.5 7.31322 18.5 8.49991C18.4975 10.0904 17.8646 11.6151 16.7399 12.7398C15.6152 13.8645 14.0905 14.4974 12.5 14.4999Z" fill="#152354"/>
</svg>
