<svg width="31" height="31" viewBox="0 0 31 31" fill="none" xmlns="http://www.w3.org/2000/svg">
<path d="M15.1041 5.84057C17.2682 5.80727 19.3611 6.61351 20.9435 8.09008L25.2058 3.92216C22.4712 1.35974 18.8513 -0.0453416 15.1041 0.00111641C12.3042 0.000469455 9.55943 0.778697 7.17659 2.24877C4.79375 3.71884 2.86683 5.8228 1.61133 8.32535L6.4952 12.1171C7.09238 10.3013 8.24448 8.71881 9.78903 7.59271C11.3336 6.4666 13.1926 5.85375 15.1041 5.84057Z" fill="#EA4335"/>
<path d="M29.6027 15.44C29.6204 14.4018 29.5132 13.3651 29.2832 12.3525H15.1035V17.9582H23.4277C23.2698 18.941 22.9148 19.8817 22.384 20.7237C21.8531 21.5658 21.1575 22.2918 20.3388 22.858L25.1051 26.5496C26.5905 25.1155 27.7586 23.3858 28.5341 21.4722C29.3095 19.5586 29.675 17.5036 29.607 15.44H29.6027Z" fill="#4285F4"/>
<path d="M6.51233 18.0915C6.18212 17.13 6.01188 16.1209 6.00841 15.1042C6.01443 14.0893 6.17856 13.0814 6.49491 12.117L1.61103 8.3252C0.551758 10.4282 0 12.7502 0 15.105C0 17.4597 0.551758 19.7817 1.61103 21.8847L6.51233 18.0915Z" fill="#FBBC05"/>
<path d="M15.1042 30.2073C18.7831 30.3114 22.3622 29.0023 25.1058 26.5491L20.3395 22.8576C18.7942 23.8936 16.964 24.4216 15.1042 24.3679C13.1944 24.3565 11.3367 23.7441 9.79457 22.6175C8.25244 21.4909 7.10421 19.9073 6.51278 18.0913L1.62891 21.8846C2.88102 24.386 4.80479 26.4895 7.18475 27.9594C9.56472 29.4293 12.3069 30.2077 15.1042 30.2073Z" fill="#34A853"/>
</svg>
