<svg width="20" height="20" viewBox="0 0 20 20" fill="none" xmlns="http://www.w3.org/2000/svg">
<path fill-rule="evenodd" clip-rule="evenodd" d="M10.0003 1.0415C10.3455 1.0415 10.6253 1.32133 10.6253 1.6665V2.49984C10.6253 2.84502 10.3455 3.12484 10.0003 3.12484C9.65515 3.12484 9.37533 2.84502 9.37533 2.49984V1.6665C9.37533 1.32133 9.65515 1.0415 10.0003 1.0415ZM15.0003 9.99984C15.0003 12.7613 12.7617 14.9998 10.0003 14.9998C7.2389 14.9998 5.00033 12.7613 5.00033 9.99984C5.00033 7.23841 7.2389 4.99984 10.0003 4.99984C12.7617 4.99984 15.0003 7.23841 15.0003 9.99984ZM10.6253 17.4998C10.6253 17.1547 10.3455 16.8748 10.0003 16.8748C9.65515 16.8748 9.37533 17.1547 9.37533 17.4998V18.3332C9.37533 18.6783 9.65515 18.9582 10.0003 18.9582C10.3455 18.9582 10.6253 18.6783 10.6253 18.3332V17.4998ZM16.3348 3.66525C16.5789 3.90933 16.5789 4.30505 16.3348 4.54913L15.7455 5.13839C15.5015 5.38247 15.1057 5.38247 14.8617 5.13839C14.6176 4.89431 14.6176 4.49858 14.8617 4.2545L15.4509 3.66525C15.695 3.42117 16.0907 3.42117 16.3348 3.66525ZM5.13892 15.745C5.383 15.5009 5.383 15.1052 5.13892 14.8611C4.89484 14.6171 4.49912 14.6171 4.25504 14.8611L3.66578 15.4504C3.42171 15.6945 3.42171 16.0902 3.66578 16.3343C3.90986 16.5783 4.30559 16.5783 4.54967 16.3343L5.13892 15.745ZM18.9587 9.99984C18.9587 10.345 18.6788 10.6248 18.3337 10.6248H17.5003C17.1551 10.6248 16.8753 10.345 16.8753 9.99984C16.8753 9.65466 17.1551 9.37484 17.5003 9.37484H18.3337C18.6788 9.37484 18.9587 9.65466 18.9587 9.99984ZM2.50033 10.6248C2.8455 10.6248 3.12533 10.345 3.12533 9.99984C3.12533 9.65466 2.8455 9.37484 2.50033 9.37484H1.66699C1.32181 9.37484 1.04199 9.65466 1.04199 9.99984C1.04199 10.345 1.32181 10.6248 1.66699 10.6248H2.50033ZM16.3348 16.3343C16.0907 16.5784 15.695 16.5784 15.4509 16.3343L14.8617 15.7451C14.6176 15.501 14.6176 15.1053 14.8617 14.8612C15.1058 14.6171 15.5015 14.6171 15.7456 14.8612L16.3348 15.4504C16.5789 15.6945 16.5789 16.0902 16.3348 16.3343ZM4.25505 5.13843C4.49912 5.38251 4.89485 5.38251 5.13893 5.13843C5.38301 4.89436 5.38301 4.49863 5.13893 4.25455L4.54967 3.66529C4.3056 3.42122 3.90987 3.42122 3.66579 3.66529C3.42171 3.90937 3.42171 4.3051 3.66579 4.54918L4.25505 5.13843Z" fill="white"/>
</svg>
