<svg width="102" height="102" viewBox="0 0 102 102" fill="none" xmlns="http://www.w3.org/2000/svg">
<path opacity="0.25" d="M51 102C79.1665 102 102 79.1665 102 51C102 22.8335 79.1665 0 51 0C22.8335 0 0 22.8335 0 51C0 79.1665 22.8335 102 51 102Z" fill="#69BCFC"/>
<path opacity="0.5" d="M50.5232 84.0972C68.9022 84.0972 83.8013 69.1981 83.8013 50.8191C83.8013 32.4401 68.9022 17.541 50.5232 17.541C32.1442 17.541 17.2451 32.4401 17.2451 50.8191C17.2451 69.1981 32.1442 84.0972 50.5232 84.0972Z" fill="#69BCFC"/>
<path d="M50.8978 67.9821C60.1757 67.9821 67.697 60.4609 67.697 51.183C67.697 41.905 60.1757 34.3838 50.8978 34.3838C41.6199 34.3838 34.0986 41.905 34.0986 51.183C34.0986 60.4609 41.6199 67.9821 50.8978 67.9821Z" fill="#69BCFC"/>
<path fill-rule="evenodd" clip-rule="evenodd" d="M56.7091 57.3947C59.9404 54.3815 60.1172 49.3193 57.104 46.088C54.0884 42.8619 49.0306 42.6853 45.7973 45.6932C42.5661 48.7064 42.3893 53.7686 45.4025 56.9998C48.4157 60.2311 53.4779 60.4079 56.7091 57.3947ZM52.817 55.7216C51.127 56.3536 49.2227 55.9052 47.9922 54.5857C46.315 52.7832 46.4131 49.9634 48.2115 48.2819C49.5307 47.051 51.4616 46.7361 53.1035 47.484C54.7455 48.2319 55.7753 49.8953 55.7125 51.6985C55.6498 53.5017 54.507 55.0896 52.817 55.7216Z" fill="white"/>
</svg>
