<svg width="51" height="31" viewBox="0 0 51 31" fill="none" xmlns="http://www.w3.org/2000/svg">
<path fill-rule="evenodd" clip-rule="evenodd" d="M35.7214 30.8335C44.1025 30.8335 50.8966 23.9605 50.8966 15.4822C50.8966 7.00387 44.1025 0.130859 35.7214 0.130859C31.9651 0.130859 28.5276 1.51149 25.8776 3.7985C23.2278 1.51186 19.7905 0.131473 16.0345 0.131473C7.65352 0.131473 0.859375 7.00449 0.859375 15.4828C0.859375 23.9611 7.65352 30.8341 16.0345 30.8341C19.7908 30.8341 23.2284 29.4535 25.8783 27.1665C28.5282 29.4531 31.9655 30.8335 35.7214 30.8335Z" fill="#ED0006"/>
<path fill-rule="evenodd" clip-rule="evenodd" d="M25.877 27.1662C29.1398 24.3505 31.2087 20.1608 31.2087 15.4822C31.2087 10.8036 29.1398 6.61381 25.877 3.7981C28.5269 1.51133 31.9642 0.130859 35.7203 0.130859C44.1013 0.130859 50.8955 7.00387 50.8955 15.4822C50.8955 23.9605 44.1013 30.8335 35.7203 30.8335C31.9642 30.8335 28.5269 29.453 25.877 27.1662Z" fill="#F9A000"/>
<path fill-rule="evenodd" clip-rule="evenodd" d="M25.8774 27.1665C29.1401 24.3508 31.2089 20.1611 31.2089 15.4827C31.2089 10.8042 29.1401 6.61454 25.8774 3.79883C22.6147 6.61454 20.5459 10.8042 20.5459 15.4827C20.5459 20.1611 22.6147 24.3508 25.8774 27.1665Z" fill="#FF5E00"/>
</svg>
