<svg width="201" height="258" viewBox="0 0 201 258" fill="none" xmlns="http://www.w3.org/2000/svg">
<path d="M28 166C28 159.373 33.3726 154 40 154H165C171.627 154 177 159.373 177 166V246C177 252.627 171.627 258 165 258H40C33.3726 258 28 252.627 28 246V166Z" fill="#FFEABD"/>
<path d="M33 159V239.094C33.0001 243.047 34.5385 246.839 37.2767 249.634C40.0149 252.429 43.7286 254 47.601 254H88V159H33Z" fill="#69BCFC"/>
<path d="M127 159H88V254H127V159Z" fill="#FF5545"/>
<path d="M127 159V254H157.503C159.407 254 161.292 253.615 163.05 252.866C164.809 252.117 166.407 251.02 167.753 249.635C169.099 248.251 170.167 246.608 170.896 244.799C171.625 242.991 172 241.052 172 239.094V159H127Z" fill="#69BCFC"/>
<path d="M157.56 239.094V159H172V239.094C172 241.052 171.623 242.991 170.891 244.799C170.159 246.608 169.087 248.251 167.735 249.635C166.383 251.02 164.777 252.117 163.011 252.866C161.245 253.615 159.352 254 157.44 254H143C144.912 254 146.805 253.615 148.571 252.866C150.338 252.117 151.943 251.02 153.295 249.635C154.647 248.251 155.719 246.608 156.451 244.799C157.183 242.991 157.56 241.052 157.56 239.094Z" fill="#2D70D5"/>
<rect x="28" y="110" width="149" height="39" rx="12" fill="#FFEABD"/>
<path d="M135.981 110H105L118.492 96.3805C122.489 91.3363 130.984 86.292 137.48 93.8584C142.677 99.9115 138.646 107.142 135.981 110Z" fill="white" stroke="#FFEABD" stroke-width="4"/>
<path d="M77.0189 110H108L94.5082 96.3805C90.5107 91.3363 82.0159 86.292 75.5199 93.8584C70.323 99.9115 74.3539 107.142 77.0189 110Z" fill="white" stroke="#FFEABD" stroke-width="4"/>
<path d="M172 144L172 119.55C172 118.343 170.462 117.186 167.723 116.333C164.985 115.479 161.271 115 157.399 115L117 115L117 144L172 144Z" fill="#69BCFC"/>
<path d="M87 144L127 144L127 115L87 115L87 144Z" fill="#FF5545"/>
<path d="M87 144L87 115L50.3962 115C48.112 115 45.8502 115.117 43.7397 115.346C41.6293 115.575 39.7116 115.91 38.0962 116.332C36.4808 116.755 35.1993 117.257 34.3249 117.809C33.4505 118.361 33.0003 118.953 33 119.55L33 144L87 144Z" fill="#69BCFC"/>
<path d="M47.4398 119.55L47.4398 144L33 144L33 119.55C33.0003 118.953 33.3771 118.361 34.1089 117.809C34.8408 117.257 35.9134 116.755 37.2654 116.332C38.6175 115.91 40.2225 115.575 41.9889 115.346C43.7553 115.117 45.6484 115 47.5602 115L62 115C60.0882 115 58.1951 115.117 56.4287 115.346C54.6624 115.575 53.0573 115.91 51.7053 116.332C50.3532 116.755 49.2806 117.257 48.5488 117.809C47.8169 118.361 47.4401 118.953 47.4398 119.55Z" fill="#2D70D5"/>
<path d="M93.5468 48.0381L95.8174 55.0261L103.165 55.0261L97.2206 59.345L99.4912 66.333L93.5468 62.0142L87.6024 66.333L89.873 59.345L83.9286 55.0261L91.2762 55.0261L93.5468 48.0381Z" fill="#F4B64F"/>
<path d="M59.415 41.7168L61.6855 48.7049L69.0332 48.7049L63.0888 53.0237L65.3594 60.0118L59.415 55.6929L53.4706 60.0118L55.7411 53.0237L49.7967 48.7049L57.1444 48.7049L59.415 41.7168Z" fill="#F4B64F"/>
<path d="M16.434 51.8301L20.1236 63.1857L32.0636 63.1857L22.4039 70.2038L26.0936 81.5594L16.434 74.5413L6.77432 81.5594L10.464 70.2038L0.804336 63.1857L12.7443 63.1857L16.434 51.8301Z" fill="#F4B64F"/>
<path d="M185.83 37.9248L189.236 48.4069L200.257 48.4069L191.341 54.8852L194.747 65.3673L185.83 58.889L176.913 65.3673L180.319 54.8852L171.403 48.4069L182.424 48.4069L185.83 37.9248Z" fill="#F4B64F"/>
<path d="M131.472 0L135.729 13.1026L149.506 13.1026L138.36 21.2005L142.618 34.3031L131.472 26.2052L120.326 34.3031L124.584 21.2005L113.438 13.1026L127.215 13.1026L131.472 0Z" fill="#F4B64F"/>
</svg>
