<svg width="26" height="26" viewBox="0 0 26 26" fill="none" xmlns="http://www.w3.org/2000/svg">
<path fill-rule="evenodd" clip-rule="evenodd" d="M13.0043 2.1665C9.8258 2.1665 7.24909 4.7542 7.24909 7.94627C7.24909 11.1383 9.8258 13.726 13.0043 13.726C16.1828 13.726 18.7595 11.1383 18.7595 7.94627C18.7595 4.7542 16.1828 2.1665 13.0043 2.1665ZM13.0043 3.73481C15.3204 3.73481 17.1979 5.62034 17.1979 7.94627C17.1979 10.2722 15.3204 12.1578 13.0043 12.1578C10.6883 12.1578 8.81075 10.2722 8.81075 7.94627C8.81075 5.62034 10.6883 3.73481 13.0043 3.73481ZM10.6489 16.0558C9.80637 16.1143 8.95474 16.2346 8.11471 16.4146C6.49337 16.7486 5.19626 17.4158 4.64418 18.5247C4.43596 18.9584 4.33126 19.4227 4.33303 19.8928C4.3324 20.3595 4.43625 20.8244 4.63701 21.2497C5.16711 22.3459 6.31312 22.9662 7.8606 23.31L8.13782 23.3679C8.95503 23.5523 9.80692 23.6764 10.6645 23.7346C10.7376 23.756 10.9117 23.776 11.1017 23.7856L11.2579 23.7915C11.3383 23.7934 11.4295 23.7938 11.5653 23.7938C12.798 23.8617 14.0759 23.8419 15.3478 23.7336C16.0256 23.6872 16.708 23.5986 17.3847 23.4687L17.891 23.3637C19.5621 23.034 20.8133 22.4071 21.3615 21.2509C21.7678 20.3926 21.7678 19.3966 21.3617 18.5386C20.8148 17.3855 19.5795 16.7638 17.8784 16.4133C17.2109 16.2709 16.5326 16.1653 15.8496 16.0981L15.3502 16.0558C13.7861 15.9178 12.213 15.9178 10.6489 16.0558ZM15.2136 17.6181L15.2272 17.6192C16.0112 17.6743 16.7904 17.7844 17.5591 17.9485C18.8227 18.2088 19.6803 18.6404 19.9515 19.2125C20.1559 19.6439 20.1559 20.1453 19.9513 20.5771C19.6978 21.1117 18.9277 21.5247 17.8146 21.7771L17.5708 21.8288C16.787 22.0036 16.0104 22.1163 15.2287 22.1699C14.0157 22.2731 12.81 22.2917 11.6074 22.2267L11.181 22.2193C11.0626 22.2134 10.9628 22.2019 10.8704 22.1834C10.1383 22.1281 9.47956 22.0407 8.83997 21.9138L8.45807 21.833C7.19053 21.5846 6.32542 21.1512 6.04493 20.5713C5.94678 20.3633 5.89436 20.1285 5.89468 19.8908C5.8938 19.6545 5.94553 19.4251 6.04595 19.2159C6.31868 18.6683 7.23546 18.1967 8.43457 17.9496C9.2088 17.7837 9.9876 17.6738 10.7712 17.6192C12.2587 17.4881 13.7403 17.4881 15.2136 17.6181Z" fill="white"/>
</svg>
