<svg width="31" height="24" viewBox="0 0 31 24" fill="none" xmlns="http://www.w3.org/2000/svg">
<path d="M2.91502 0.102962C2.71688 0.132219 2.5264 0.861631 2.14364 1.24177C1.86398 1.51558 1.51411 1.49903 1.32888 1.83801C1.25826 1.96412 1.28106 2.18063 1.20156 2.38765C1.04478 2.8031 0.495146 2.84002 0.495146 3.2922C0.493129 3.78089 0.953173 3.87371 1.35248 4.22096C1.66402 4.49941 1.69389 4.6917 2.0708 4.82729C2.39323 4.93625 2.87224 4.57911 3.30363 4.70764C3.65714 4.81256 3.99592 4.88843 4.07623 5.25223C4.14685 5.58798 4.07118 6.10714 3.64181 6.04721C3.49714 6.03067 2.86901 5.81982 2.09905 5.90194C1.16847 6.00767 0.107134 6.31093 0.00322105 7.34865C-0.0540827 7.92774 0.663224 8.61115 1.35571 8.47213C1.83391 8.37851 1.60793 7.81354 1.86781 7.53973C2.20982 7.18804 4.14685 8.76591 5.94647 8.76591C6.70433 8.76591 7.26808 8.57423 7.82801 7.98808C7.88047 7.94288 7.94403 7.84724 8.02494 7.84078C8.10141 7.84724 8.23438 7.9225 8.27837 7.95438C9.72751 9.11942 10.8237 11.4572 16.1522 11.4838C16.902 11.4882 17.7549 11.8464 18.4524 12.482C19.0741 13.0566 19.4371 13.9515 19.7908 14.8587C20.3245 16.2198 21.2792 17.5443 22.7286 19.0174C22.8073 19.0965 24.0006 20.0239 24.096 20.0929C24.1107 20.1036 24.1987 20.3124 24.168 20.429C24.1329 21.3132 24.0044 23.8822 25.9198 23.9988C26.388 24.0222 26.2657 23.6929 26.2657 23.4669C26.2645 23.019 26.183 22.5745 26.4184 22.1159C26.7409 21.4859 25.7344 21.196 25.7637 19.8334C25.7847 18.8175 24.9311 18.9908 24.4985 18.2168C24.249 17.7684 24.0272 17.5308 24.0431 16.9823C24.1406 13.8962 23.3864 11.868 23.0107 11.3698C22.7171 10.9941 22.4744 10.845 22.7423 10.6711C24.3414 9.61437 24.7038 8.63274 24.7038 8.63274C25.5542 6.63458 26.3186 4.80954 27.3728 4.00567C27.5847 3.83941 28.1295 3.43303 28.4632 3.27384C29.4475 2.80996 29.9646 2.52848 30.2507 2.25084C30.7023 1.81057 31.0602 0.891494 30.6264 0.334598C30.0877 -0.352643 29.1555 0.19255 28.7449 0.436696C25.8058 2.18063 25.3726 5.25727 24.3547 7.0244C23.5425 8.43581 22.2219 9.47293 21.0412 9.55767C20.157 9.62325 19.2022 9.44428 18.2524 9.02701C15.9421 8.0141 14.6782 6.70661 14.3788 6.47518C13.7583 5.99617 8.94018 1.26538 5.03546 1.07228C5.03546 1.07228 4.55079 0.10155 4.42912 0.0862149C4.14382 0.0492904 3.85145 0.665305 3.64181 0.737339C3.44488 0.80231 3.11376 0.0702748 2.91502 0.10276" fill="#152354"/>
</svg>
