<svg width="19" height="19" viewBox="0 0 19 19" fill="none" xmlns="http://www.w3.org/2000/svg">
<path fill-rule="evenodd" clip-rule="evenodd" d="M18.2244 1.48852C18.2642 1.38899 18.274 1.27996 18.2524 1.17494C18.2309 1.06992 18.179 0.973527 18.1032 0.89772C18.0274 0.821912 17.931 0.77002 17.826 0.748477C17.721 0.726934 17.6119 0.736686 17.5124 0.776526L1.57826 7.15055H1.57717L1.08207 7.34772C0.988295 7.38512 0.906685 7.44772 0.846255 7.5286C0.785824 7.60947 0.748924 7.70548 0.73963 7.80601C0.730337 7.90654 0.749011 8.00769 0.793592 8.09827C0.838172 8.18886 0.906922 8.26536 0.992249 8.31932L1.44134 8.60412L1.44244 8.60631L6.91375 12.0874L10.3948 17.5589L10.397 17.561L10.6818 18.0102C10.7359 18.0952 10.8124 18.1636 10.903 18.2079C10.9935 18.2522 11.0945 18.2706 11.1948 18.2612C11.2951 18.2518 11.3909 18.2149 11.4716 18.1546C11.5524 18.0943 11.6149 18.0128 11.6523 17.9192L18.2244 1.48852ZM16.2166 3.55879L16.7325 2.26843L15.4422 2.78436L7.23359 10.9931L7.60382 11.2287C7.67176 11.2718 7.72936 11.3294 7.77251 11.3973L8.00801 11.7676L16.2166 3.55879Z" fill="white"/>
</svg>
