<svg width="19" height="14" viewBox="0 0 19 14" fill="none" xmlns="http://www.w3.org/2000/svg">
<path d="M19 5.81131L12.7612 11.6226L12.7612 7.74844C12.7612 7.74844 12.4776 7.74846 12.005 7.66041C11.5323 7.57236 10.9652 7.4843 10.209 7.4843C9.45275 7.39625 8.69653 7.39625 7.84578 7.57235C7.37315 7.57235 6.99501 7.74844 6.52238 7.83649C6.04974 8.01259 5.67164 8.10065 5.199 8.27674C4.72644 8.45282 4.34838 8.71693 3.97033 8.98104L3.97016 8.98116L3.97012 8.98118C3.59203 9.24533 3.21393 9.50947 2.93035 9.86166L2.93006 9.86193C2.5521 10.214 2.26859 10.4781 1.98508 10.8302C1.7015 11.1824 1.41793 11.4465 1.22887 11.7987C1.03984 12.1509 0.850796 12.415 0.661761 12.6792L0.661703 12.6792C0.567175 12.9434 0.378126 13.2076 0.283599 13.3837C0.0945446 13.8239 0 14 0 14C0 14 5.76675e-06 13.7359 0.0945331 13.2956C0.0945331 13.1195 0.189072 12.7673 0.283599 12.5032C0.378075 12.2392 0.47254 11.8872 0.567016 11.5352L0.56717 11.5346C0.661697 11.1824 0.850751 10.7421 1.03981 10.3899C1.22886 9.94969 1.41793 9.50944 1.70151 9.06919C1.89056 8.62894 2.26867 8.18869 2.64678 7.74844L2.64683 7.74839C3.02492 7.30815 3.40301 6.86793 3.87562 6.51574L5.29353 5.45916C5.76617 5.19501 6.33334 4.93084 6.90051 4.66669C7.94031 4.22644 8.98009 3.96229 9.83083 3.78619C10.6816 3.61009 11.4378 3.52204 11.9104 3.43399C12.3831 3.34594 12.7612 3.34375 12.7612 3.34375V0L19 5.81131Z" fill="#FF1B1B"/>
</svg>
