<svg width="51" height="17" viewBox="0 0 51 17" fill="none" xmlns="http://www.w3.org/2000/svg">
<path fill-rule="evenodd" clip-rule="evenodd" d="M12.6221 16.8061H8.29169L5.04442 4.41761C4.8903 3.84774 4.56304 3.34394 4.08165 3.1065C2.88029 2.50979 1.55647 2.03489 0.112305 1.79538V1.31843H7.08821C8.05099 1.31843 8.77307 2.03489 8.89342 2.86699L10.5783 11.8032L14.9066 1.31843H19.1166L12.6221 16.8061ZM21.5234 16.805H17.4337L20.8013 1.31732H24.891L21.5234 16.805ZM30.1816 5.60771C30.3019 4.77355 31.024 4.29659 31.8664 4.29659C33.1902 4.17684 34.6323 4.41635 35.8358 5.01099L36.5578 1.67643C35.3544 1.19947 34.0306 0.959961 32.8292 0.959961C28.8598 0.959961 25.9715 3.10523 25.9715 6.0826C25.9715 8.34763 28.0174 9.53692 29.4616 10.2534C31.024 10.9678 31.6257 11.4447 31.5054 12.1591C31.5054 13.2308 30.3019 13.7077 29.1005 13.7077C27.6564 13.7077 26.2122 13.3505 24.8905 12.7538L24.1684 16.0904C25.6126 16.6851 27.175 16.9246 28.6192 16.9246C33.0699 17.0423 35.8358 14.8991 35.8358 11.6822C35.8358 7.63116 30.1816 7.39371 30.1816 5.60771ZM50.1492 16.805L46.902 1.31732H43.414C42.6919 1.31732 41.9699 1.79427 41.7292 2.50867L35.716 16.805H39.9261L40.7664 14.542H45.9392L46.4206 16.805H50.1492ZM44.0157 5.48802L45.217 11.3251H41.8494L44.0157 5.48802Z" fill="#152354"/>
</svg>
